# 3ds Max Wavefront OBJ Exporter v0.99 - (c)2007 guruware
# File Created: 30.06.2026 22:08:11

mtllib Env_1.mtl

#
# object Plane002
#

v  27.8295 0.0000 -11.4825
v  26.8850 0.0000 -12.2856
v  26.4040 0.0000 -11.9071
v  23.9607 0.0000 -11.2537
v  25.4594 0.0000 -12.2165
v  23.3239 0.0000 -11.9856
v  22.3224 0.0000 -11.1691
v  29.4575 0.0000 9.8709
v  19.5046 0.0000 -14.6363
v  19.3081 0.0000 -15.2308
v  18.1681 0.0000 -14.8854
v  20.6698 0.0000 -13.1628
v  21.0647 0.0000 -12.4107
v  15.3958 0.0000 -14.6392
v  17.2279 0.0000 -15.5703
v  14.6047 0.0000 -15.1865
v  13.2642 0.0000 -14.0461
v  12.0775 0.0000 -14.6628
v  11.0252 0.0000 -13.8134
v  10.2077 0.0000 -12.6649
v  10.2903 0.0000 -14.4681
v  9.5231 0.0000 -14.2904
v  9.4161 0.0000 -13.8143
v  10.0871 0.0000 -13.6582
v  21.5734 0.0000 -11.9944
v  7.8430 0.0000 -12.7614
v  6.5761 0.0000 -12.3163
v  5.4072 0.0000 -11.2856
v  4.4809 0.0000 -11.9284
v  3.4494 0.0000 -10.9639
v  7.6990 0.0000 8.4876
v  2.2555 0.0000 -11.5844
v  2.5029 0.0000 -12.3206
v  2.0328 0.0000 -12.6726
v  -0.1689 0.0000 -10.9010
v  3.5169 0.0000 10.2616
v  -0.8849 0.0000 -11.5815
v  -2.0235 0.0000 -11.7592
v  -3.8859 0.0000 -11.1204
v  -2.0619 0.0000 -12.6810
v  -5.4045 0.0000 -12.2756
v  -6.5305 0.0000 -11.4021
v  -8.2565 0.0000 8.2469
v  -7.5427 0.0000 -12.2514
v  -8.3527 0.0000 -11.3385
v  -9.5169 0.0000 -12.0566
v  -9.8015 0.0000 -13.0816
v  -10.3738 0.0000 -12.6381
v  -12.9238 0.0000 -12.6984
v  -11.5842 0.0000 -13.4788
v  -12.9848 0.0000 -12.2334
v  -14.1100 0.0000 -11.0720
v  -14.5894 0.0000 -11.5541
v  -14.9291 0.0000 -11.3219
v  -16.2465 0.0000 -10.9202
v  -15.6753 0.0000 -11.7489
v  -17.2776 0.0000 -13.1063
v  -16.4851 0.0000 -13.4918
v  -16.4023 0.0000 -13.8109
v  -17.7104 0.0000 -13.7133
v  -17.5383 0.0000 -11.9868
v  -18.5140 0.0000 -13.6447
v  -19.0722 0.0000 -13.3289
v  -19.9560 0.0000 -12.2895
v  -19.5493 0.0000 -13.4116
v  -16.9145 0.0000 -11.3975
v  -20.9152 0.0000 -12.0734
v  -20.5566 0.0000 -12.2578
v  -21.5968 0.0000 -12.6280
v  -22.9989 0.0000 -11.8279
v  -23.9343 0.0000 -12.4714
v  -24.5786 0.0000 -11.6591
v  -20.5062 0.0000 8.9533
v  -25.1682 0.0000 -11.8029
v  -25.1867 0.0000 -12.5657
v  -25.6720 0.0000 -12.3465
v  -26.3008 0.0000 -12.8541
v  -26.8193 0.0000 -13.4272
v  -27.7062 0.0000 -12.7697
v  -27.7060 0.0000 -11.9911
v  -28.7223 0.0000 -11.3275
v  -29.0811 0.0000 -11.8755
v  -29.4575 0.0000 -11.4676
v  -29.4575 0.0000 9.8360
v  -28.0690 0.0000 10.9914
v  -26.2355 0.0000 9.7525
v  -24.8782 0.0000 11.0511
v  -23.5736 0.0000 10.4763
v  -22.2691 0.0000 11.2852
v  -20.4654 0.0000 9.8710
v  -19.6182 0.0000 9.5634
v  -18.4681 0.0000 8.8208
v  -17.9087 0.0000 9.5028
v  -16.9066 0.0000 10.1111
v  -15.9911 0.0000 9.5160
v  -15.3182 0.0000 8.8173
v  -13.2844 0.0000 9.8416
v  -15.0117 0.0000 9.4269
v  -14.4607 0.0000 9.7614
v  -14.0732 0.0000 10.3865
v  -13.1815 0.0000 10.0453
v  -13.5968 0.0000 10.3899
v  -12.8107 0.0000 11.0217
v  -11.8947 0.0000 10.8862
v  -11.4944 0.0000 10.5733
v  -10.1705 0.0000 11.4626
v  -8.9490 0.0000 10.7684
v  -8.2713 0.0000 10.0041
v  -6.4903 0.0000 9.6243
v  -6.2656 0.0000 9.7136
v  -4.9545 0.0000 8.5869
v  -4.5777 0.0000 8.9725
v  -3.8378 0.0000 8.3681
v  -2.5228 0.0000 9.2828
v  -3.1085 0.0000 9.7579
v  -2.0328 0.0000 10.5396
v  -1.4616 0.0000 10.5246
v  -0.6322 0.0000 11.0281
v  0.8301 0.0000 9.8610
v  2.1927 0.0000 10.9222
v  3.1417 0.0000 10.4939
v  3.5242 0.0000 10.5475
v  3.2454 0.0000 10.8253
v  3.7847 0.0000 11.4006
v  4.7056 0.0000 11.9350
v  6.2459 0.0000 10.7468
v  6.6350 0.0000 11.0072
v  7.8612 0.0000 10.0842
v  7.6116 0.0000 9.7256
v  9.2451 0.0000 9.6987
v  10.6391 0.0000 8.7587
v  10.6825 0.0000 9.5182
v  10.4245 0.0000 9.8424
v  11.1146 0.0000 10.0467
v  11.3373 0.0000 10.4860
v  11.8311 0.0000 10.5209
v  12.4087 0.0000 11.0791
v  12.7838 0.0000 10.9099
v  13.3297 0.0000 11.0391
v  13.7577 0.0000 10.6137
v  14.9677 0.0000 11.4108
v  16.9238 0.0000 10.0080
v  16.9056 0.0000 8.6602
v  19.6597 0.0000 8.5564
v  18.1205 0.0000 9.6430
v  18.9625 0.0000 9.1132
v  20.2157 0.0000 9.1280
v  20.5601 0.0000 9.4998
v  21.4935 0.0000 9.4119
v  20.8122 0.0000 9.9538
v  21.2279 0.0000 10.5475
v  22.2156 0.0000 10.6172
v  22.4058 0.0000 11.0745
v  22.8721 0.0000 11.2219
v  23.7750 0.0000 10.6561
v  24.4371 0.0000 10.0656
v  24.3437 0.0000 9.2420
v  25.0430 0.0000 9.7000
v  25.6905 0.0000 9.1908
v  26.3224 0.0000 8.7145
v  26.8483 0.0000 9.1764
v  27.1363 0.0000 9.6294
v  27.8838 0.0000 9.2763
v  27.6028 0.0000 9.7760
v  28.7142 0.0000 10.5108
v  28.4686 0.0000 -11.8657
v  29.4575 0.0000 -11.5109
v  28.7142 -10.2183 10.5108
v  29.4575 -10.2183 9.8709
v  27.6028 -10.2183 9.7760
v  27.8838 -10.2183 9.2763
v  27.1363 -10.2183 9.6294
v  26.8483 -10.2183 9.1764
v  26.3224 -10.2183 8.7145
v  25.6905 -10.2183 9.1908
v  25.0430 -10.2183 9.7000
v  24.3437 -10.2183 9.2420
v  24.4371 -10.2183 10.0656
v  23.7750 -10.2183 10.6561
v  22.8721 -10.2183 11.2219
v  22.4058 -10.2183 11.0745
v  22.2156 -10.2183 10.6172
v  21.2279 -10.2183 10.5475
v  20.8122 -10.2183 9.9538
v  21.4935 -10.2183 9.4119
v  20.5601 -10.2183 9.4998
v  20.2157 -10.2183 9.1280
v  19.6597 -10.2183 8.5564
v  18.9625 -10.2183 9.1132
v  18.1205 -10.2183 9.6430
v  16.9056 -10.2183 8.6602
v  16.9238 -10.2183 10.0080
v  14.9677 -10.2183 11.4108
v  13.7577 -10.2183 10.6137
v  13.3297 -10.2183 11.0391
v  12.7838 -10.2183 10.9099
v  12.4087 -10.2183 11.0791
v  11.8311 -10.2183 10.5209
v  11.3373 -10.2183 10.4860
v  11.1146 -10.2183 10.0467
v  10.4245 -10.2183 9.8424
v  10.6825 -10.2183 9.5182
v  10.6391 -10.2183 8.7587
v  9.2451 -10.2183 9.6987
v  7.6990 -10.2183 8.4876
v  7.6116 -10.2183 9.7256
v  7.8612 -10.2183 10.0842
v  6.6350 -10.2183 11.0072
v  6.2459 -10.2183 10.7468
v  4.7056 -10.2183 11.9350
v  3.7847 -10.2183 11.4006
v  3.2454 -10.2183 10.8253
v  3.5242 -10.2183 10.5475
v  3.5169 -10.2183 10.2616
v  3.1417 -10.2183 10.4939
v  2.1927 -10.2183 10.9222
v  0.8301 -10.2183 9.8610
v  -0.6322 -10.2183 11.0281
v  -1.4616 -10.2183 10.5246
v  -2.0328 -10.2183 10.5396
v  -3.1085 -10.2183 9.7579
v  -2.5228 -10.2183 9.2828
v  -3.8378 -10.2183 8.3681
v  -4.5777 -10.2183 8.9725
v  -4.9545 -10.2183 8.5869
v  -6.2656 -10.2183 9.7136
v  -6.4903 -10.2183 9.6243
v  -8.2565 -10.2183 8.2469
v  -8.2713 -10.2183 10.0041
v  -8.9490 -10.2183 10.7684
v  -10.1705 -10.2183 11.4626
v  -11.4944 -10.2183 10.5733
v  -11.8947 -10.2183 10.8862
v  -12.8107 -10.2183 11.0217
v  -13.5968 -10.2183 10.3899
v  -13.1815 -10.2183 10.0453
v  -13.2844 -10.2183 9.8416
v  -14.0732 -10.2183 10.3865
v  -14.4607 -10.2183 9.7614
v  -15.0117 -10.2183 9.4269
v  -15.3182 -10.2183 8.8173
v  -15.9911 -10.2183 9.5160
v  -16.9066 -10.2183 10.1111
v  -17.9087 -10.2183 9.5028
v  -18.4681 -10.2183 8.8208
v  -19.6182 -10.2183 9.5634
v  -20.5062 -10.2183 8.9533
v  -20.4654 -10.2183 9.8710
v  -22.2691 -10.2183 11.2852
v  -23.5736 -10.2183 10.4763
v  -24.8782 -10.2183 11.0511
v  -26.2355 -10.2183 9.7525
v  -28.0690 -10.2183 10.9914
v  -29.4575 -10.2183 9.8360
v  -29.0811 10.0000 -11.8755
v  -29.4575 10.0000 -11.4676
v  -28.7223 10.0000 -11.3275
v  -27.7060 10.0000 -11.9911
v  -27.7062 10.0000 -12.7697
v  -26.8193 10.0000 -13.4272
v  -26.3008 10.0000 -12.8541
v  -25.6720 10.0000 -12.3465
v  -25.1867 10.0000 -12.5657
v  -25.1682 10.0000 -11.8029
v  -24.5786 10.0000 -11.6591
v  -23.9343 10.0000 -12.4714
v  -22.9989 10.0000 -11.8279
v  -21.5968 10.0000 -12.6280
v  -20.9152 10.0000 -12.0734
v  -20.5566 10.0000 -12.2578
v  -19.9560 10.0000 -12.2895
v  -19.5493 10.0000 -13.4116
v  -19.0722 10.0000 -13.3289
v  -18.5140 10.0000 -13.6447
v  -17.7104 10.0000 -13.7133
v  -16.4023 10.0000 -13.8109
v  -16.4851 10.0000 -13.4918
v  -17.2776 10.0000 -13.1063
v  -17.5383 10.0000 -11.9868
v  -16.9145 10.0000 -11.3975
v  -16.2465 10.0000 -10.9202
v  -15.6753 10.0000 -11.7489
v  -14.9291 10.0000 -11.3219
v  -14.5894 10.0000 -11.5541
v  -14.1100 10.0000 -11.0720
v  -12.9848 10.0000 -12.2334
v  -12.9238 10.0000 -12.6984
v  -11.5842 10.0000 -13.4788
v  -10.3738 10.0000 -12.6381
v  -9.8015 10.0000 -13.0816
v  -9.5169 10.0000 -12.0566
v  -8.3527 10.0000 -11.3385
v  -7.5427 10.0000 -12.2514
v  -6.5305 10.0000 -11.4021
v  -5.4045 10.0000 -12.2756
v  -3.8859 10.0000 -11.1204
v  -2.0619 10.0000 -12.6810
v  -2.0235 10.0000 -11.7592
v  -0.8849 10.0000 -11.5815
v  -0.1689 10.0000 -10.9010
v  2.0328 10.0000 -12.6726
v  2.5029 10.0000 -12.3206
v  2.2555 10.0000 -11.5844
v  3.4494 10.0000 -10.9639
v  4.4809 10.0000 -11.9284
v  5.4072 10.0000 -11.2856
v  6.5761 10.0000 -12.3163
v  7.8430 10.0000 -12.7614
v  10.2077 10.0000 -12.6649
v  10.0871 10.0000 -13.6582
v  9.4161 10.0000 -13.8143
v  9.5231 10.0000 -14.2904
v  10.2903 10.0000 -14.4681
v  11.0252 10.0000 -13.8134
v  12.0775 10.0000 -14.6628
v  13.2642 10.0000 -14.0461
v  14.6047 10.0000 -15.1865
v  15.3958 10.0000 -14.6392
v  17.2279 10.0000 -15.5703
v  18.1681 10.0000 -14.8854
v  19.3081 10.0000 -15.2308
v  19.5046 10.0000 -14.6363
v  20.6698 10.0000 -13.1628
v  21.0647 10.0000 -12.4107
v  21.5734 10.0000 -11.9944
v  22.3224 10.0000 -11.1691
v  23.3239 10.0000 -11.9856
v  23.9607 10.0000 -11.2537
v  25.4594 10.0000 -12.2165
v  26.4040 10.0000 -11.9071
v  26.8850 10.0000 -12.2856
v  27.8295 10.0000 -11.4825
v  28.4686 10.0000 -11.8657
v  29.4575 10.0000 -11.5109
# 334 vertices

vn -0.0660 -0.5965 0.7999
vn -0.0153 0.5886 0.8083
vn 0.1374 -0.6147 0.7767
vn -0.0653 0.8871 0.4569
vn 0.0993 0.6221 0.7766
vn -0.0695 0.5791 0.8123
vn -0.0329 0.8983 0.4382
vn 0.3699 0.8237 0.4297
vn -0.6536 -0.6699 0.3521
vn -0.3757 0.5787 0.7239
vn -0.0950 0.8224 0.5610
vn -0.6094 0.6868 0.3961
vn -0.5082 0.7549 0.4146
vn -0.0535 -0.6080 0.7922
vn -0.0633 0.6062 0.7928
vn 0.0402 0.5923 0.8047
vn 0.0581 0.8565 0.5129
vn 0.0796 0.6022 0.7944
vn -0.0113 0.8848 0.4659
vn 0.2831 0.9228 0.2613
vn -0.1947 0.6168 0.7626
vn 0.5651 0.6047 0.5613
vn 0.6913 0.5778 -0.4340
vn 0.5965 -0.5980 -0.5354
vn -0.4980 0.6908 0.5241
vn 0.1102 0.6671 0.7367
vn 0.3770 0.6665 0.6431
vn 0.0280 0.8751 0.4832
vn 0.0586 0.5893 0.8058
vn 0.0687 0.8626 0.5013
vn 0.1086 0.9635 0.2446
vn -0.4302 0.8859 0.1737
vn -0.7667 0.5960 0.2388
vn 0.0140 0.5917 0.8060
vn -0.0190 0.8886 0.4583
vn -0.1359 0.9583 0.2515
vn -0.3372 0.6458 0.6850
vn -0.3533 0.8807 0.3154
vn 0.0137 0.8787 0.4772
vn -0.3334 0.5502 0.7656
vn 0.0038 0.5923 0.8057
vn -0.0092 0.8787 0.4774
vn 0.1090 0.9680 0.2258
vn 0.0599 0.5788 0.8133
vn 0.0682 0.8836 0.4632
vn -0.4805 0.7992 0.3611
vn -0.2610 0.5596 0.7866
vn 0.0210 -0.5951 0.8034
vn 0.6533 0.6201 0.4345
vn -0.0317 0.6038 0.7965
vn 0.5577 0.7851 0.2694
vn 0.0027 0.9067 0.4218
vn -0.0763 0.5876 0.8055
vn 0.0317 -0.6049 0.7956
vn 0.0729 0.9065 0.4159
vn 0.1805 0.5819 0.7930
vn -0.4498 0.8179 -0.3589
vn -0.6047 0.6239 -0.4951
vn -0.6350 0.5620 0.5301
vn 0.0565 0.7059 0.7060
vn -0.5224 0.8381 0.1574
vn 0.2214 0.6621 0.7159
vn 0.1045 0.7912 0.6025
vn 0.3091 0.8547 0.4170
vn 0.4063 0.5872 0.7001
vn -0.4392 0.7228 0.5336
vn -0.0829 -0.6022 0.7940
vn 0.1952 0.6628 0.7229
vn -0.0657 0.5993 0.7978
vn -0.0335 -0.6048 0.7957
vn 0.1207 0.5810 0.8049
vn 0.1706 0.8507 0.4971
vn 0.1227 0.9675 0.2211
vn -0.6275 -0.5925 0.5051
vn -0.4413 0.5592 0.7018
vn -0.0678 0.8460 0.5288
vn -0.4731 0.7251 0.5005
vn -0.0801 0.5827 0.8088
vn 0.7019 0.6185 0.3533
vn 0.4886 0.8315 0.2644
vn -0.0874 0.9044 0.4177
vn -0.0682 0.5655 0.8219
vn 0.4029 0.8363 0.3718
vn -0.3645 0.8218 0.4380
vn -0.0401 0.5937 0.8037
vn -0.0403 0.8786 0.4758
vn -0.1384 0.6009 0.7873
vn -0.0392 0.8285 0.5586
vn 0.0440 0.5981 0.8002
vn 0.7150 0.6172 0.3285
vn -0.0114 0.6010 0.7991
vn -0.0702 0.8909 0.4487
vn -0.4859 0.6712 0.5599
vn 0.0123 0.6047 0.7963
vn 0.4655 0.6824 0.5636
vn -0.0507 0.9410 0.3345
vn -0.0967 0.9201 0.3796
vn -0.5584 0.6499 0.5156
vn -0.4545 0.7635 0.4588
vn -0.1671 0.5749 0.8010
vn -0.4701 0.8772 -0.0978
vn -0.8233 0.5675 0.0064
vn -0.2040 0.6272 0.7517
vn 0.2982 0.6539 0.6953
vn 0.0288 -0.5958 0.8026
vn -0.0297 0.6057 0.7952
vn 0.4662 0.6721 0.5753
vn 0.7203 0.6361 0.2768
vn -0.3661 0.6766 0.6389
vn 0.1312 0.6071 0.7837
vn -0.0354 -0.5809 0.8132
vn -0.0454 0.5823 0.8117
vn 0.0190 0.8705 0.4919
vn -0.3534 0.9354 0.0130
vn -0.8249 0.5649 0.0219
vn -0.2275 0.6414 0.7327
vn -0.1618 0.7764 0.6091
vn 0.0513 0.5981 0.7998
vn 0.0029 0.8758 0.4826
vn -0.0942 0.6072 0.7889
vn 0.3389 0.6927 0.6366
vn -0.5472 0.8078 -0.2191
vn -0.8152 0.5790 -0.0139
vn -0.4587 0.6758 0.5769
vn 0.0524 0.6005 0.7979
vn 0.0168 0.8646 0.5022
vn 0.0221 0.5971 0.8018
vn 0.8048 0.5794 0.1288
vn 0.5908 0.7903 -0.1627
vn -0.0286 0.5956 0.8028
vn -0.1260 0.9589 0.2543
vn -0.7362 -0.6350 -0.2339
vn -0.7903 0.5598 0.2492
vn -0.3772 0.8079 0.4527
vn -0.4377 0.6112 0.6594
vn -0.2482 0.7928 0.5567
vn -0.1371 0.6000 0.7882
vn 0.0589 0.7873 0.6137
vn 0.2147 0.6124 0.7608
vn 0.0806 -0.5890 0.8041
vn 0.0158 0.5991 0.8005
vn 0.7030 0.6163 0.3550
vn 0.3650 -0.5494 0.7516
vn -0.0282 0.8929 0.4494
vn -0.0475 0.5967 0.8011
vn 0.4166 0.6947 0.5864
vn -0.5148 -0.7044 0.4887
vn -0.2800 0.6197 0.7332
vn -0.1438 0.9879 0.0579
vn -0.8057 0.5806 -0.1168
vn -0.3859 0.6219 0.6814
vn -0.4646 -0.6058 0.6458
vn -0.5281 0.6234 0.5767
vn 0.0989 0.6237 0.7753
vn 0.4354 0.6887 0.5798
vn 0.7353 0.6168 0.2808
vn 0.1258 0.9708 0.2042
vn 0.0347 0.5964 0.8020
vn 0.4328 -0.7048 0.5621
vn -0.0177 0.8798 0.4751
vn -0.5593 -0.6767 0.4789
vn -0.2255 0.5842 0.7796
vn -0.6144 -0.5431 0.5723
vn -0.7910 0.5812 0.1912
vn 0.0509 0.5933 0.8034
vn 0.0764 0.6223 0.7791
vn -0.2142 0.7732 0.5969
vn 0.0632 0.0000 0.9980
vn 0.6525 0.0000 0.7578
vn -0.9720 0.0000 0.2349
vn -0.7317 0.0000 0.6816
vn -0.2779 0.0000 0.9606
vn -0.7595 0.0000 0.6505
vn -0.0373 0.0000 0.9993
vn 0.6101 0.0000 0.7923
vn 0.0433 0.0000 0.9991
vn 0.5243 0.0000 0.8515
vn 0.9342 0.0000 0.3568
vn 0.6004 0.0000 0.7997
vn 0.1265 0.0000 0.9920
vn -0.6753 0.0000 0.7375
vn -0.5840 0.0000 0.8117
vn -0.4928 0.0000 0.8702
vn -0.9897 0.0000 -0.1435
vn -0.9276 0.0000 0.3736
vn -0.3568 0.0000 0.9342
vn -0.7252 0.0000 0.6885
vn -0.0626 0.0000 0.9980
vn 0.5792 0.0000 0.8152
vn -0.0592 0.0000 0.9982
vn 0.4368 0.0000 0.8995
vn 0.8927 0.0000 0.4507
vn 0.0198 0.0000 0.9998
vn 0.0997 0.0000 0.9950
vn 0.2716 0.0000 0.9624
vn 0.0956 0.0000 0.9954
vn -0.1713 0.0000 0.9852
vn -0.4072 0.0000 0.9134
vn -0.5530 0.0000 0.8332
vn -0.6401 0.0000 0.7683
vn -0.9537 0.0000 0.3007
vn -0.9531 0.0000 -0.3027
vn -0.4439 0.0000 0.8961
vn -0.0356 0.0000 0.9994
vn 0.4057 0.0000 0.9140
vn 0.9641 0.0000 -0.2656
vn 0.9874 0.0000 0.1580
vn 0.0275 0.0000 0.9996
vn 0.0335 0.0000 0.9994
vn 0.0656 0.0000 0.9978
vn -0.6224 0.0000 0.7827
vn -0.9999 0.0000 -0.0171
vn -0.9283 0.0000 -0.3717
vn -0.4754 0.0000 0.8798
vn 0.4699 0.0000 0.8827
vn -0.1186 0.0000 0.9929
vn 0.0059 0.0000 1.0000
vn 0.0640 0.0000 0.9980
vn -0.2567 0.0000 0.9665
vn -0.2966 0.0000 0.9550
vn -0.9996 0.0000 0.0266
vn -0.9993 0.0000 0.0369
vn 0.0385 0.0000 0.9993
vn -0.0559 0.0000 0.9984
vn -0.0434 0.0000 0.9991
vn 0.1651 0.0000 0.9863
vn -0.4971 0.0000 0.8677
vn 0.4347 0.0000 0.9006
vn 0.9334 0.0000 0.3588
vn 0.6296 0.0000 0.7769
vn -0.0374 0.0000 0.9993
vn 0.0359 0.0000 0.9994
vn 0.3941 0.0000 0.9191
vn -0.2620 0.0000 0.9651
vn -1.0000 0.0000 0.0077
vn -0.9790 0.0000 -0.2037
vn -0.2468 0.0000 0.9691
vn -0.2042 0.0000 0.9789
vn -0.7038 0.0000 0.7104
vn -0.7347 0.0000 0.6784
vn -0.1498 0.0000 0.9887
vn 0.6368 0.0000 0.7711
vn 0.0155 0.0000 0.9999
vn -0.6554 0.0000 0.7553
vn -0.1546 0.0000 0.9880
vn -0.0143 0.0000 0.9999
vn 0.4852 0.0000 0.8744
vn 0.9087 0.0000 0.4175
vn 0.0549 0.0000 0.9985
vn -0.0700 0.0000 0.9975
vn -0.1732 0.0000 0.9849
vn -0.0843 0.0000 0.9964
vn -0.0498 0.0000 0.9988
vn -0.6396 0.0000 0.7687
vn -0.0827 0.0000 0.9966
vn 0.7349 0.0000 0.6782
vn -0.2049 0.0000 0.9788
vn 0.8795 0.0000 0.4759
vn 0.8933 0.0000 0.4496
vn -0.0985 0.0000 0.9951
vn -0.6869 0.0000 0.7267
vn -0.1271 0.0000 0.9919
vn -0.5323 0.0000 0.8466
vn -0.7790 0.0000 0.6271
vn 0.3246 0.0000 0.9459
vn 0.1483 0.0000 0.9889
vn -0.0420 0.0000 0.9991
vn -0.0821 0.0000 0.9966
vn -0.1038 0.0000 0.9946
vn 0.2607 0.0000 0.9654
vn 0.5955 0.0000 0.8034
vn 0.5019 0.0000 0.8649
vn 0.1708 0.0000 0.9853
vn 0.2955 0.0000 0.9554
vn 0.0797 0.0000 0.9968
vn -0.7677 0.0000 0.6408
vn -0.7738 0.0000 -0.6335
vn -0.7817 0.0000 -0.6237
vn -0.9575 0.0000 0.2884
vn -0.6355 0.0000 0.7721
vn 0.1726 0.0000 0.9850
vn 0.2219 0.0000 0.9751
vn 0.0398 0.0000 0.9992
vn -0.0943 0.0000 0.9955
vn 0.0065 0.0000 1.0000
vn 0.9004 0.0000 0.4350
vn 0.8327 0.0000 0.5538
vn -0.0397 0.0000 0.9992
vn 0.0262 0.0000 0.9997
vn -0.3149 0.0000 0.9491
vn -0.7994 0.0000 0.6008
vn 0.1457 0.0000 0.9893
vn 0.0734 0.0000 0.9973
vn -0.0192 0.0000 0.9998
vn 0.0047 0.0000 1.0000
vn 0.0287 0.0000 0.9996
vn -0.3993 0.0000 0.9168
vn -0.7460 0.0000 0.6660
vn -0.4416 0.0000 0.8972
vn -0.0413 0.0000 0.9991
vn 0.0174 0.0000 0.9998
vn -0.9548 0.0000 0.2974
vn -0.9273 0.0000 0.3743
vn 0.1358 0.0000 0.9907
vn 0.0725 0.0000 0.9974
vn 0.0579 0.0000 0.9983
vn 0.5058 0.0000 0.8627
vn 0.1480 0.0000 0.9890
vn 0.7348 0.0000 0.6783
vn 0.7442 0.0000 -0.6680
vn 0.8469 0.0000 -0.5317
vn 0.7094 0.0000 0.7048
vn -0.2474 0.0000 0.9689
vn -0.0242 0.0000 0.9997
vn 0.1126 0.0000 0.9936
vn 0.0498 0.0000 0.9988
vn -0.0674 0.0000 0.9977
vn -0.0796 0.0000 0.9968
vn -0.1669 0.0000 0.9860
vn -0.4606 0.0000 0.8876
vn -0.8804 0.0000 0.4743
vn -0.8385 0.0000 0.5449
vn -0.7749 0.0000 0.6321
vn -0.6888 0.0000 0.7249
vn -0.0749 0.0000 0.9972
vn -0.0853 0.0000 0.9964
vn -0.1415 0.0000 0.9899
vn 0.1269 0.0000 0.9919
vn 0.1742 0.0000 0.9847
vn -0.0190 0.0000 0.9998
vn -0.0822 0.0000 0.9966
vn 0.0976 0.0000 0.9952
vn -0.3377 0.0000 0.9413
# 333 vertex normals

vt 0.9724 0.7101 0.0000
vt 0.9563 0.7248 0.0000
vt 0.9482 0.7178 0.0000
vt 0.9067 0.7059 0.0000
vt 0.9321 0.7235 0.0000
vt 0.8959 0.7193 0.0000
vt 0.8789 0.7043 0.0000
vt 1.0000 0.3194 0.0000
vt 0.8311 0.7678 0.0000
vt 0.8277 0.7786 0.0000
vt 0.8084 0.7723 0.0000
vt 0.8508 0.7408 0.0000
vt 0.8575 0.7270 0.0000
vt 0.7613 0.7678 0.0000
vt 0.7924 0.7848 0.0000
vt 0.7479 0.7778 0.0000
vt 0.7251 0.7570 0.0000
vt 0.7050 0.7682 0.0000
vt 0.6871 0.7527 0.0000
vt 0.6733 0.7317 0.0000
vt 0.6747 0.7647 0.0000
vt 0.6616 0.7614 0.0000
vt 0.6598 0.7527 0.0000
vt 0.6712 0.7499 0.0000
vt 0.8662 0.7194 0.0000
vt 0.6331 0.7335 0.0000
vt 0.6116 0.7253 0.0000
vt 0.5918 0.7065 0.0000
vt 0.5761 0.7182 0.0000
vt 0.5585 0.7006 0.0000
vt 0.6307 0.3447 0.0000
vt 0.5383 0.7119 0.0000
vt 0.5425 0.7254 0.0000
vt 0.5345 0.7318 0.0000
vt 0.4971 0.6994 0.0000
vt 0.5597 0.3123 0.0000
vt 0.4850 0.7119 0.0000
vt 0.4657 0.7151 0.0000
vt 0.4340 0.7034 0.0000
vt 0.4650 0.7320 0.0000
vt 0.4083 0.7246 0.0000
vt 0.3892 0.7086 0.0000
vt 0.3599 0.3491 0.0000
vt 0.3720 0.7241 0.0000
vt 0.3582 0.7074 0.0000
vt 0.3385 0.7206 0.0000
vt 0.3336 0.7393 0.0000
vt 0.3239 0.7312 0.0000
vt 0.2806 0.7323 0.0000
vt 0.3034 0.7466 0.0000
vt 0.2796 0.7238 0.0000
vt 0.2605 0.7026 0.0000
vt 0.2524 0.7114 0.0000
vt 0.2466 0.7071 0.0000
vt 0.2242 0.6998 0.0000
vt 0.2339 0.7149 0.0000
vt 0.2067 0.7398 0.0000
vt 0.2202 0.7468 0.0000
vt 0.2216 0.7527 0.0000
vt 0.1994 0.7509 0.0000
vt 0.2023 0.7193 0.0000
vt 0.1858 0.7496 0.0000
vt 0.1763 0.7438 0.0000
vt 0.1613 0.7248 0.0000
vt 0.1682 0.7454 0.0000
vt 0.2129 0.7085 0.0000
vt 0.1450 0.7209 0.0000
vt 0.1511 0.7242 0.0000
vt 0.1334 0.7310 0.0000
vt 0.1096 0.7164 0.0000
vt 0.0937 0.7282 0.0000
vt 0.0828 0.7133 0.0000
vt 0.1519 0.3362 0.0000
vt 0.0728 0.7159 0.0000
vt 0.0725 0.7299 0.0000
vt 0.0643 0.7259 0.0000
vt 0.0536 0.7352 0.0000
vt 0.0448 0.7456 0.0000
vt 0.0297 0.7336 0.0000
vt 0.0297 0.7194 0.0000
vt 0.0125 0.7072 0.0000
vt 0.0064 0.7173 0.0000
vt 0.0000 0.7098 0.0000
vt 0.0000 0.3201 0.0000
vt 0.0236 0.2989 0.0000
vt 0.0547 0.3216 0.0000
vt 0.0777 0.2978 0.0000
vt 0.0999 0.3083 0.0000
vt 0.1220 0.2935 0.0000
vt 0.1526 0.3194 0.0000
vt 0.1670 0.3250 0.0000
vt 0.1865 0.3386 0.0000
vt 0.1960 0.3262 0.0000
vt 0.2130 0.3150 0.0000
vt 0.2286 0.3259 0.0000
vt 0.2400 0.3387 0.0000
vt 0.2745 0.3200 0.0000
vt 0.2452 0.3275 0.0000
vt 0.2546 0.3214 0.0000
vt 0.2611 0.3100 0.0000
vt 0.2763 0.3162 0.0000
vt 0.2692 0.3099 0.0000
vt 0.2826 0.2984 0.0000
vt 0.2981 0.3008 0.0000
vt 0.3049 0.3066 0.0000
vt 0.3274 0.2903 0.0000
vt 0.3481 0.3030 0.0000
vt 0.3596 0.3170 0.0000
vt 0.3898 0.3239 0.0000
vt 0.3936 0.3223 0.0000
vt 0.4159 0.3429 0.0000
vt 0.4223 0.3359 0.0000
vt 0.4349 0.3469 0.0000
vt 0.4572 0.3302 0.0000
vt 0.4472 0.3215 0.0000
vt 0.4655 0.3072 0.0000
vt 0.4752 0.3075 0.0000
vt 0.4893 0.2982 0.0000
vt 0.5141 0.3196 0.0000
vt 0.5372 0.3002 0.0000
vt 0.5533 0.3080 0.0000
vt 0.5598 0.3070 0.0000
vt 0.5551 0.3020 0.0000
vt 0.5642 0.2914 0.0000
vt 0.5799 0.2817 0.0000
vt 0.6060 0.3034 0.0000
vt 0.6126 0.2986 0.0000
vt 0.6334 0.3155 0.0000
vt 0.6292 0.3221 0.0000
vt 0.6569 0.3226 0.0000
vt 0.6806 0.3398 0.0000
vt 0.6813 0.3259 0.0000
vt 0.6769 0.3199 0.0000
vt 0.6887 0.3162 0.0000
vt 0.6924 0.3082 0.0000
vt 0.7008 0.3075 0.0000
vt 0.7106 0.2973 0.0000
vt 0.7170 0.3004 0.0000
vt 0.7263 0.2980 0.0000
vt 0.7335 0.3058 0.0000
vt 0.7541 0.2912 0.0000
vt 0.7873 0.3169 0.0000
vt 0.7869 0.3416 0.0000
vt 0.8337 0.3435 0.0000
vt 0.8076 0.3236 0.0000
vt 0.8219 0.3333 0.0000
vt 0.8431 0.3330 0.0000
vt 0.8490 0.3262 0.0000
vt 0.8648 0.3278 0.0000
vt 0.8533 0.3179 0.0000
vt 0.8603 0.3070 0.0000
vt 0.8771 0.3058 0.0000
vt 0.8803 0.2974 0.0000
vt 0.8882 0.2947 0.0000
vt 0.9035 0.3051 0.0000
vt 0.9148 0.3159 0.0000
vt 0.9132 0.3309 0.0000
vt 0.9251 0.3225 0.0000
vt 0.9361 0.3319 0.0000
vt 0.9468 0.3406 0.0000
vt 0.9557 0.3321 0.0000
vt 0.9606 0.3238 0.0000
vt 0.9733 0.3303 0.0000
vt 0.9685 0.3212 0.0000
vt 0.9874 0.3077 0.0000
vt 0.9832 0.7171 0.0000
vt 1.0000 0.7106 0.0000
vt 1.0033 0.2696 0.0000
vt 0.9906 0.2696 0.0000
vt 0.9906 0.0020 0.0000
vt 1.0033 0.0020 0.0000
vt 0.9718 0.2696 0.0000
vt 0.9718 0.0020 0.0000
vt 0.9765 0.2696 0.0000
vt 0.9638 0.2696 0.0000
vt 0.9638 0.0020 0.0000
vt 0.9765 0.0020 0.0000
vt 0.9589 0.2696 0.0000
vt 0.9589 0.0020 0.0000
vt 0.9500 0.2696 0.0000
vt 0.9500 0.0020 0.0000
vt 0.9393 0.2696 0.0000
vt 0.9393 0.0020 0.0000
vt 0.9283 0.2696 0.0000
vt 0.9283 0.0020 0.0000
vt 0.9164 0.2696 0.0000
vt 0.9164 0.0020 0.0000
vt 0.0176 0.2621 0.0000
vt 0.0005 0.2621 0.0000
vt 0.0005 0.0005 0.0000
vt 0.0176 0.0005 0.0000
vt 0.9180 0.2696 0.0000
vt 0.9067 0.2696 0.0000
vt 0.9067 0.0020 0.0000
vt 0.9180 0.0020 0.0000
vt 0.8914 0.2696 0.0000
vt 0.8914 0.0020 0.0000
vt 0.8834 0.2696 0.0000
vt 0.8834 0.0020 0.0000
vt 0.8802 0.2696 0.0000
vt 0.8802 0.0020 0.0000
vt 0.8634 0.2696 0.0000
vt 0.8634 0.0020 0.0000
vt 0.8563 0.2696 0.0000
vt 0.8563 0.0020 0.0000
vt 0.8679 0.2696 0.0000
vt 0.8521 0.2696 0.0000
vt 0.8521 0.0020 0.0000
vt 0.8679 0.0020 0.0000
vt 0.8462 0.2696 0.0000
vt 0.8462 0.0020 0.0000
vt 0.8368 0.2696 0.0000
vt 0.8368 0.0020 0.0000
vt 0.8249 0.2696 0.0000
vt 0.8249 0.0020 0.0000
vt 0.8106 0.2696 0.0000
vt 0.8106 0.0020 0.0000
vt 0.7900 0.2696 0.0000
vt 0.7900 0.0020 0.0000
vt 0.0470 0.2621 0.0000
vt 0.0192 0.2621 0.0000
vt 0.0192 0.0005 0.0000
vt 0.0470 0.0005 0.0000
vt 0.7903 0.2696 0.0000
vt 0.7570 0.2696 0.0000
vt 0.7570 0.0020 0.0000
vt 0.7903 0.0020 0.0000
vt 0.7365 0.2696 0.0000
vt 0.7365 0.0020 0.0000
vt 0.7292 0.2696 0.0000
vt 0.7292 0.0020 0.0000
vt 0.7199 0.2696 0.0000
vt 0.7199 0.0020 0.0000
vt 0.7135 0.2696 0.0000
vt 0.7135 0.0020 0.0000
vt 0.7037 0.2696 0.0000
vt 0.7037 0.0020 0.0000
vt 0.6953 0.2696 0.0000
vt 0.6953 0.0020 0.0000
vt 0.6915 0.2696 0.0000
vt 0.6915 0.0020 0.0000
vt 0.6798 0.2696 0.0000
vt 0.6798 0.0020 0.0000
vt 0.6842 0.2696 0.0000
vt 0.6835 0.2696 0.0000
vt 0.6835 0.0020 0.0000
vt 0.6842 0.0020 0.0000
vt 0.6598 0.2696 0.0000
vt 0.6598 0.0020 0.0000
vt 0.6335 0.2696 0.0000
vt 0.6335 0.0020 0.0000
vt 0.0749 0.2621 0.0000
vt 0.0493 0.2621 0.0000
vt 0.0493 0.0005 0.0000
vt 0.0749 0.0005 0.0000
vt 0.6362 0.2696 0.0000
vt 0.6154 0.2696 0.0000
vt 0.6154 0.0020 0.0000
vt 0.6362 0.0020 0.0000
vt 0.6088 0.2696 0.0000
vt 0.6088 0.0020 0.0000
vt 0.5826 0.2696 0.0000
vt 0.5826 0.0020 0.0000
vt 0.5670 0.2696 0.0000
vt 0.5670 0.0020 0.0000
vt 0.5578 0.2696 0.0000
vt 0.5578 0.0020 0.0000
vt 0.5625 0.2696 0.0000
vt 0.5624 0.2696 0.0000
vt 0.5624 0.0020 0.0000
vt 0.5625 0.0020 0.0000
vt 0.5560 0.2696 0.0000
vt 0.5560 0.0020 0.0000
vt 0.5399 0.2696 0.0000
vt 0.5399 0.0020 0.0000
vt 0.5167 0.2696 0.0000
vt 0.5167 0.0020 0.0000
vt 0.4919 0.2696 0.0000
vt 0.4919 0.0020 0.0000
vt 0.4778 0.2696 0.0000
vt 0.4778 0.0020 0.0000
vt 0.4681 0.2696 0.0000
vt 0.4681 0.0020 0.0000
vt 0.4498 0.2696 0.0000
vt 0.4498 0.0020 0.0000
vt 0.4598 0.2696 0.0000
vt 0.4374 0.2696 0.0000
vt 0.4374 0.0020 0.0000
vt 0.4598 0.0020 0.0000
vt 0.4248 0.2696 0.0000
vt 0.4248 0.0020 0.0000
vt 0.4184 0.2696 0.0000
vt 0.4184 0.0020 0.0000
vt 0.3962 0.2696 0.0000
vt 0.3962 0.0020 0.0000
vt 0.3923 0.2696 0.0000
vt 0.3923 0.0020 0.0000
vt 0.3623 0.2696 0.0000
vt 0.3623 0.0020 0.0000
vt 0.1344 0.2621 0.0000
vt 0.0982 0.2621 0.0000
vt 0.0982 0.0005 0.0000
vt 0.1344 0.0005 0.0000
vt 0.3621 0.2696 0.0000
vt 0.3505 0.2696 0.0000
vt 0.3505 0.0020 0.0000
vt 0.3621 0.0020 0.0000
vt 0.3298 0.2696 0.0000
vt 0.3298 0.0020 0.0000
vt 0.3073 0.2696 0.0000
vt 0.3073 0.0020 0.0000
vt 0.3005 0.2696 0.0000
vt 0.3005 0.0020 0.0000
vt 0.2849 0.2696 0.0000
vt 0.2849 0.0020 0.0000
vt 0.2716 0.2696 0.0000
vt 0.2716 0.0020 0.0000
vt 0.2786 0.2696 0.0000
vt 0.2769 0.2696 0.0000
vt 0.2769 0.0020 0.0000
vt 0.2786 0.0020 0.0000
vt 0.2635 0.2696 0.0000
vt 0.2635 0.0020 0.0000
vt 0.2569 0.2696 0.0000
vt 0.2569 0.0020 0.0000
vt 0.2475 0.2696 0.0000
vt 0.2475 0.0020 0.0000
vt 0.2423 0.2696 0.0000
vt 0.2423 0.0020 0.0000
vt 0.2309 0.2696 0.0000
vt 0.2309 0.0020 0.0000
vt 0.2153 0.2696 0.0000
vt 0.2153 0.0020 0.0000
vt 0.1983 0.2696 0.0000
vt 0.1983 0.0020 0.0000
vt 0.1888 0.2696 0.0000
vt 0.1888 0.0020 0.0000
vt 0.1692 0.2696 0.0000
vt 0.1692 0.0020 0.0000
vt 0.1541 0.2696 0.0000
vt 0.1541 0.0020 0.0000
vt 0.0959 0.2621 0.0000
vt 0.0770 0.2621 0.0000
vt 0.0770 0.0005 0.0000
vt 0.0959 0.0005 0.0000
vt 0.1548 0.2696 0.0000
vt 0.1242 0.2696 0.0000
vt 0.1242 0.0020 0.0000
vt 0.1548 0.0020 0.0000
vt 0.1020 0.2696 0.0000
vt 0.1020 0.0020 0.0000
vt 0.0798 0.2696 0.0000
vt 0.0798 0.0020 0.0000
vt 0.0568 0.2696 0.0000
vt 0.0568 0.0020 0.0000
vt 0.0256 0.2696 0.0000
vt 0.0256 0.0020 0.0000
vt 0.0020 0.2696 0.0000
vt 0.0020 0.0020 0.0000
vt 0.0020 0.7029 0.0000
vt 0.0085 0.7029 0.0000
vt 0.0085 0.9964 0.0000
vt 0.0020 0.9964 0.0000
vt 0.0162 0.7029 0.0000
vt 0.0162 0.9964 0.0000
vt 0.0305 0.7029 0.0000
vt 0.0305 0.9964 0.0000
vt 0.0396 0.7029 0.0000
vt 0.0396 0.9964 0.0000
vt 0.0526 0.7029 0.0000
vt 0.0526 0.9964 0.0000
vt 0.0617 0.7029 0.0000
vt 0.0617 0.9964 0.0000
vt 0.0711 0.7029 0.0000
vt 0.0711 0.9964 0.0000
vt 0.0774 0.7029 0.0000
vt 0.0774 0.9964 0.0000
vt 0.0864 0.7029 0.0000
vt 0.0864 0.9964 0.0000
vt 0.0935 0.7029 0.0000
vt 0.0935 0.9964 0.0000
vt 0.1057 0.7029 0.0000
vt 0.1057 0.9964 0.0000
vt 0.1190 0.7029 0.0000
vt 0.1190 0.9964 0.0000
vt 0.1380 0.7029 0.0000
vt 0.1380 0.9964 0.0000
vt 0.1483 0.7029 0.0000
vt 0.1483 0.9964 0.0000
vt 0.1530 0.7029 0.0000
vt 0.1530 0.9964 0.0000
vt 0.1601 0.7029 0.0000
vt 0.1601 0.9964 0.0000
vt 0.1741 0.7029 0.0000
vt 0.1741 0.9964 0.0000
vt 0.1798 0.7029 0.0000
vt 0.1798 0.9964 0.0000
vt 0.1873 0.7029 0.0000
vt 0.1873 0.9964 0.0000
vt 0.1968 0.7029 0.0000
vt 0.1968 0.9964 0.0000
vt 0.2122 0.7029 0.0000
vt 0.2122 0.9964 0.0000
vt 0.2161 0.7029 0.0000
vt 0.2161 0.9964 0.0000
vt 0.2264 0.7029 0.0000
vt 0.2264 0.9964 0.0000
vt 0.2399 0.7029 0.0000
vt 0.2399 0.9964 0.0000
vt 0.2500 0.7029 0.0000
vt 0.2500 0.9964 0.0000
vt 0.2596 0.7029 0.0000
vt 0.2596 0.9964 0.0000
vt 0.2715 0.7029 0.0000
vt 0.2715 0.9964 0.0000
vt 0.2816 0.7029 0.0000
vt 0.2816 0.9964 0.0000
vt 0.2864 0.7029 0.0000
vt 0.2864 0.9964 0.0000
vt 0.2944 0.7029 0.0000
vt 0.2944 0.9964 0.0000
vt 0.3134 0.7029 0.0000
vt 0.3134 0.9964 0.0000
vt 0.3189 0.7029 0.0000
vt 0.3189 0.9964 0.0000
vt 0.3371 0.7029 0.0000
vt 0.3371 0.9964 0.0000
vt 0.3544 0.7029 0.0000
vt 0.3544 0.9964 0.0000
vt 0.3629 0.7029 0.0000
vt 0.3629 0.9964 0.0000
vt 0.3754 0.7029 0.0000
vt 0.3754 0.9964 0.0000
vt 0.3915 0.7029 0.0000
vt 0.3915 0.9964 0.0000
vt 0.4058 0.7029 0.0000
vt 0.4058 0.9964 0.0000
vt 0.4213 0.7029 0.0000
vt 0.4213 0.9964 0.0000
vt 0.4381 0.7029 0.0000
vt 0.4381 0.9964 0.0000
vt 0.4605 0.7029 0.0000
vt 0.4605 0.9964 0.0000
vt 0.4887 0.7029 0.0000
vt 0.4887 0.9964 0.0000
vt 0.4995 0.7029 0.0000
vt 0.4995 0.9964 0.0000
vt 0.5130 0.7029 0.0000
vt 0.5130 0.9964 0.0000
vt 0.5246 0.7029 0.0000
vt 0.5246 0.9964 0.0000
vt 0.5578 0.7029 0.0000
vt 0.5578 0.9964 0.0000
vt 0.5647 0.7029 0.0000
vt 0.5647 0.9964 0.0000
vt 0.5738 0.7029 0.0000
vt 0.5738 0.9964 0.0000
vt 0.5897 0.7029 0.0000
vt 0.5897 0.9964 0.0000
vt 0.6062 0.7029 0.0000
vt 0.6062 0.9964 0.0000
vt 0.6195 0.7029 0.0000
vt 0.6195 0.9964 0.0000
vt 0.6378 0.7029 0.0000
vt 0.6378 0.9964 0.0000
vt 0.6536 0.7029 0.0000
vt 0.6536 0.9964 0.0000
vt 0.6814 0.7029 0.0000
vt 0.6814 0.9964 0.0000
vt 0.6931 0.7029 0.0000
vt 0.6931 0.9964 0.0000
vt 0.7012 0.7029 0.0000
vt 0.7012 0.9964 0.0000
vt 0.7069 0.7029 0.0000
vt 0.7069 0.9964 0.0000
vt 0.7162 0.7029 0.0000
vt 0.7162 0.9964 0.0000
vt 0.7277 0.7029 0.0000
vt 0.7277 0.9964 0.0000
vt 0.7436 0.7029 0.0000
vt 0.7436 0.9964 0.0000
vt 0.7593 0.7029 0.0000
vt 0.7593 0.9964 0.0000
vt 0.7800 0.7029 0.0000
vt 0.7800 0.9964 0.0000
vt 0.7913 0.7029 0.0000
vt 0.7913 0.9964 0.0000
vt 0.8154 0.7029 0.0000
vt 0.8154 0.9964 0.0000
vt 0.8291 0.7029 0.0000
vt 0.8291 0.9964 0.0000
vt 0.8431 0.7029 0.0000
vt 0.8431 0.9964 0.0000
vt 0.8504 0.7029 0.0000
vt 0.8504 0.9964 0.0000
vt 0.8725 0.7029 0.0000
vt 0.8725 0.9964 0.0000
vt 0.8825 0.7029 0.0000
vt 0.8825 0.9964 0.0000
vt 0.8902 0.7029 0.0000
vt 0.8902 0.9964 0.0000
vt 0.9033 0.7029 0.0000
vt 0.9033 0.9964 0.0000
vt 0.9185 0.7029 0.0000
vt 0.9185 0.9964 0.0000
vt 0.9299 0.7029 0.0000
vt 0.9299 0.9964 0.0000
vt 0.9508 0.7029 0.0000
vt 0.9508 0.9964 0.0000
vt 0.9625 0.7029 0.0000
vt 0.9625 0.9964 0.0000
vt 0.9696 0.7029 0.0000
vt 0.9696 0.9964 0.0000
vt 0.9842 0.7029 0.0000
vt 0.9842 0.9964 0.0000
vt 0.9930 0.7029 0.0000
vt 0.9930 0.9964 0.0000
vt 1.0053 0.7029 0.0000
vt 1.0053 0.9964 0.0000
# 519 texture coords

o Plane002
g Plane002
usemtl Material__27
s 1
f 1/1/1 2/2/2 3/3/3 4/4/4 
f 3/3/3 5/5/5 4/4/4 
f 4/4/4 6/6/6 7/7/7 8/8/8 
f 9/9/9 10/10/10 11/11/11 12/12/12 
f 13/13/13 12/12/12 11/11/11 14/14/14 
f 11/11/11 15/15/15 14/14/14 
f 14/14/14 16/16/16 17/17/17 13/13/13 
f 17/17/17 18/18/18 19/19/19 20/20/20 
f 19/19/19 21/21/21 22/22/22 23/23/23 
f 19/19/19 23/23/23 24/24/24 20/20/20 
f 13/13/13 17/17/17 20/20/20 25/25/25 
f 20/20/20 26/26/26 27/27/27 28/28/28 
f 28/28/28 29/29/29 30/30/30 31/31/31 
f 32/32/32 33/33/33 34/34/34 35/35/35 
f 30/30/30 32/32/32 35/35/35 36/36/36 
f 35/35/35 37/37/37 38/38/38 39/39/39 
f 38/38/38 40/40/40 39/39/39 
f 39/39/39 41/41/41 42/42/42 43/43/43 
f 42/42/42 44/44/44 45/45/45 43/43/43 
f 46/46/46 47/47/47 48/48/48 49/49/49 
f 48/48/48 50/50/50 49/49/49 
f 45/45/45 46/46/46 49/49/49 51/51/51 
f 52/52/52 53/53/53 54/54/54 55/55/55 
f 54/54/54 56/56/56 55/55/55 
f 57/57/57 58/58/58 59/59/59 60/60/60 
f 61/61/61 57/57/57 60/60/60 62/62/62 
f 61/61/61 62/62/62 63/63/63 64/64/64 
f 63/63/63 65/65/65 64/64/64 
f 66/66/66 61/61/61 64/64/64 67/67/67 
f 64/64/64 68/68/68 67/67/67 
f 67/67/67 69/69/69 70/70/70 66/66/66 
f 70/70/70 71/71/71 72/72/72 66/66/66 
f 55/55/55 66/66/66 72/72/72 73/73/73 
f 74/74/74 75/75/75 76/76/76 73/73/73 
f 77/77/77 78/78/78 79/79/79 80/80/80 
f 76/76/76 77/77/77 80/80/80 81/81/81 
f 81/81/81 82/82/82 83/83/83 73/73/73 
f 84/84/84 85/85/85 86/86/86 83/83/83 
f 86/86/86 87/87/87 88/88/88 83/83/83 
f 88/88/88 89/89/89 90/90/90 73/73/73 
f 83/83/83 88/88/88 73/73/73 
f 76/76/76 81/81/81 73/73/73 
f 72/72/72 74/74/74 73/73/73 
f 73/73/73 91/91/91 92/92/92 55/55/55 
f 92/92/92 93/93/93 94/94/94 95/95/95 
f 92/92/92 95/95/95 96/96/96 55/55/55 
f 52/52/52 55/55/55 96/96/96 97/97/97 
f 96/96/96 98/98/98 99/99/99 97/97/97 
f 99/99/99 100/100/100 97/97/97 
f 52/52/52 97/97/97 101/101/101 51/51/51 
f 45/45/45 51/51/51 101/101/101 43/43/43 
f 101/101/101 102/102/102 103/103/103 104/104/104 
f 101/101/101 104/104/104 105/105/105 43/43/43 
f 105/105/105 106/106/106 107/107/107 43/43/43 
f 107/107/107 108/108/108 43/43/43 
f 109/109/109 110/110/110 111/111/111 43/43/43 
f 111/111/111 112/112/112 113/113/113 43/43/43 
f 39/39/39 43/43/43 113/113/113 35/35/35 
f 114/114/114 115/115/115 116/116/116 117/117/117 
f 114/114/114 117/117/117 118/118/118 119/119/119 
f 113/113/113 114/114/114 119/119/119 36/36/36 
f 119/119/119 120/120/120 121/121/121 36/36/36 
f 35/35/35 113/113/113 36/36/36 
f 122/122/122 123/123/123 124/124/124 31/31/31 
f 124/124/124 125/125/125 126/126/126 31/31/31 
f 126/126/126 127/127/127 128/128/128 129/129/129 
f 126/126/126 129/129/129 31/31/31 
f 36/36/36 122/122/122 31/31/31 30/30/30 
f 31/31/31 130/130/130 131/131/131 28/28/28 
f 132/132/132 133/133/133 134/134/134 131/131/131 
f 134/134/134 135/135/135 136/136/136 131/131/131 
f 136/136/136 137/137/137 138/138/138 131/131/131 
f 138/138/138 139/139/139 140/140/140 131/131/131 
f 140/140/140 141/141/141 142/142/142 131/131/131 
f 131/131/131 142/142/142 143/143/143 144/144/144 
f 143/143/143 145/145/145 146/146/146 144/144/144 
f 28/28/28 131/131/131 144/144/144 20/20/20 
f 147/147/147 148/148/148 149/149/149 144/144/144 
f 149/149/149 150/150/150 151/151/151 152/152/152 
f 152/152/152 153/153/153 154/154/154 149/149/149 
f 149/149/149 154/154/154 155/155/155 156/156/156 
f 149/149/149 156/156/156 157/157/157 144/144/144 
f 157/157/157 158/158/158 159/159/159 160/160/160 
f 144/144/144 157/157/157 160/160/160 20/20/20 
f 25/25/25 20/20/20 160/160/160 7/7/7 
f 161/161/161 162/162/162 163/163/163 160/160/160 
f 7/7/7 160/160/160 163/163/163 8/8/8 
f 163/163/163 164/164/164 165/165/165 8/8/8 
f 1/1/1 4/4/4 8/8/8 166/166/166 
f 166/166/166 8/8/8 167/167/167 
s 2
f 8/168/8 165/169/165 168/170/168 169/171/169 
s 4
f 165/169/165 164/172/164 170/173/170 168/170/168 
s 2
f 164/164/164 163/163/163 171/163/171 170/164/170 
s 4
f 163/174/163 162/175/162 172/176/172 171/177/171 
s 2
f 162/175/162 161/178/161 173/179/173 172/176/172 
f 161/178/161 160/180/160 174/181/174 173/179/173 
s 4
f 160/180/160 159/182/159 175/183/175 174/181/174 
f 159/182/159 158/184/158 176/185/176 175/183/175 
s 2
f 158/184/158 157/186/157 177/187/177 176/185/176 
s 4
f 157/188/157 156/189/156 178/190/178 177/191/177 
s 2
f 156/192/156 155/193/155 179/194/179 178/195/178 
f 155/193/155 154/196/154 180/197/180 179/194/179 
s 4
f 154/196/154 153/198/153 181/199/181 180/197/180 
s 2
f 153/198/153 152/200/152 182/201/182 181/199/181 
s 4
f 152/200/152 151/202/151 183/203/183 182/201/182 
s 2
f 151/202/151 150/204/150 184/205/184 183/203/183 
s 4
f 150/150/150 149/149/149 185/149/185 184/150/184 
s 2
f 149/206/149 148/207/148 186/208/186 185/209/185 
s 4
f 148/207/148 147/210/147 187/211/187 186/208/186 
f 147/210/147 144/212/144 188/213/188 187/211/187 
s 2
f 144/212/144 146/214/146 189/215/189 188/213/188 
f 146/214/146 145/216/145 190/217/190 189/215/189 
s 4
f 145/216/145 143/218/143 191/219/191 190/217/190 
s 2
f 143/220/143 142/221/142 192/222/192 191/223/191 
s 4
f 142/224/142 141/225/141 193/226/193 192/227/192 
s 2
f 141/225/141 140/228/140 194/229/194 193/226/193 
s 4
f 140/228/140 139/230/139 195/231/195 194/229/194 
s 2
f 139/230/139 138/232/138 196/233/196 195/231/195 
f 138/232/138 137/234/137 197/235/197 196/233/196 
s 4
f 137/234/137 136/236/136 198/237/198 197/235/197 
f 136/236/136 135/238/135 199/239/199 198/237/198 
s 2
f 135/238/135 134/240/134 200/241/200 199/239/199 
s 4
f 134/240/134 133/242/133 201/243/201 200/241/200 
s 2
f 133/133/133 132/132/132 202/132/202 201/133/201 
f 132/244/132 131/245/131 203/246/203 202/247/202 
s 4
f 131/245/131 130/248/130 204/249/204 203/246/203 
s 2
f 130/248/130 31/250/31 205/251/205 204/249/204 
s 4
f 31/252/31 129/253/129 206/254/206 205/255/205 
f 129/129/129 128/128/128 207/128/207 206/129/206 
s 2
f 128/256/128 127/257/127 208/258/208 207/259/207 
s 4
f 127/257/127 126/260/126 209/261/209 208/258/208 
s 2
f 126/260/126 125/262/125 210/263/210 209/261/209 
s 4
f 125/262/125 124/264/124 211/265/211 210/263/210 
f 124/264/124 123/266/123 212/267/212 211/265/211 
s 2
f 123/123/123 122/122/122 213/122/213 212/123/212 
s 4
f 122/268/122 36/269/36 214/270/214 213/271/213 
s 2
f 36/269/36 121/272/121 215/273/215 214/270/214 
f 121/272/121 120/274/120 216/275/216 215/273/215 
s 4
f 120/274/120 119/276/119 217/277/217 216/275/216 
s 2
f 119/276/119 118/278/118 218/279/218 217/277/217 
s 4
f 118/278/118 117/280/117 219/281/219 218/279/218 
f 117/280/117 116/282/116 220/283/220 219/281/219 
f 116/282/116 115/284/115 221/285/221 220/283/220 
s 2
f 115/115/115 114/114/114 222/114/222 221/115/221 
s 4
f 114/286/114 113/287/113 223/288/223 222/289/222 
s 2
f 113/287/113 112/290/112 224/291/224 223/288/223 
s 4
f 112/290/112 111/292/111 225/293/225 224/291/224 
s 2
f 111/292/111 110/294/110 226/295/226 225/293/225 
s 4
f 110/294/110 109/296/109 227/297/227 226/295/226 
f 109/296/109 43/298/43 228/299/228 227/297/227 
s 2
f 43/300/43 108/301/108 229/302/229 228/303/228 
f 108/304/108 107/305/107 230/306/230 229/307/229 
f 107/305/107 106/308/106 231/309/231 230/306/230 
s 4
f 106/308/106 105/310/105 232/311/232 231/309/231 
s 2
f 105/310/105 104/312/104 233/313/233 232/311/232 
f 104/312/104 103/314/103 234/315/234 233/313/233 
s 4
f 103/314/103 102/316/102 235/317/235 234/315/234 
s 2
f 102/102/102 101/101/101 236/101/236 235/102/235 
s 4
f 101/318/101 97/319/97 237/320/237 236/321/236 
s 2
f 97/319/97 100/322/100 238/323/238 237/320/237 
s 4
f 100/322/100 99/324/99 239/325/239 238/323/238 
f 99/324/99 98/326/98 240/327/240 239/325/239 
f 98/326/98 96/328/96 241/329/241 240/327/240 
s 2
f 96/328/96 95/330/95 242/331/242 241/329/241 
f 95/330/95 94/332/94 243/333/243 242/331/242 
s 4
f 94/332/94 93/334/93 244/335/244 243/333/243 
f 93/334/93 92/336/92 245/337/245 244/335/244 
s 2
f 92/336/92 91/338/91 246/339/246 245/337/245 
s 4
f 91/338/91 73/340/73 247/341/247 246/339/246 
s 2
f 73/342/73 90/343/90 248/344/248 247/345/247 
s 4
f 90/346/90 89/347/89 249/348/249 248/349/248 
s 2
f 89/347/89 88/350/88 250/351/250 249/348/249 
s 4
f 88/350/88 87/352/87 251/353/251 250/351/250 
s 2
f 87/352/87 86/354/86 252/355/252 251/353/251 
s 4
f 86/354/86 85/356/85 253/357/253 252/355/252 
s 2
f 85/356/85 84/358/84 254/359/254 253/357/253 
f 83/360/83 82/361/82 255/362/255 256/363/256 
s 4
f 82/361/82 81/364/81 257/365/257 255/362/255 
s 2
f 81/364/81 80/366/80 258/367/258 257/365/257 
s 4
f 80/366/80 79/368/79 259/369/259 258/367/258 
s 2
f 79/368/79 78/370/78 260/371/260 259/369/259 
s 4
f 78/370/78 77/372/77 261/373/261 260/371/260 
f 77/372/77 76/374/76 262/375/262 261/373/261 
s 2
f 76/374/76 75/376/75 263/377/263 262/375/262 
s 4
f 75/376/75 74/378/74 264/379/264 263/377/263 
s 2
f 74/378/74 72/380/72 265/381/265 264/379/264 
s 4
f 72/380/72 71/382/71 266/383/266 265/381/265 
s 2
f 71/382/71 70/384/70 267/385/267 266/383/266 
s 4
f 70/384/70 69/386/69 268/387/268 267/385/267 
s 2
f 69/386/69 67/388/67 269/389/269 268/387/268 
s 4
f 67/388/67 68/390/68 270/391/270 269/389/269 
f 68/390/68 64/392/64 271/393/271 270/391/270 
s 2
f 64/392/64 65/394/65 272/395/272 271/393/271 
s 4
f 65/394/65 63/396/63 273/397/273 272/395/272 
f 63/396/63 62/398/62 274/399/274 273/397/273 
f 62/398/62 60/400/60 275/401/275 274/399/274 
f 60/400/60 59/402/59 276/403/276 275/401/275 
s 2
f 59/402/59 58/404/58 277/405/277 276/403/276 
s 4
f 58/404/58 57/406/57 278/407/278 277/405/277 
s 2
f 57/406/57 61/408/61 279/409/279 278/407/278 
s 4
f 61/408/61 66/410/66 280/411/280 279/409/279 
f 66/410/66 55/412/55 281/413/281 280/411/280 
s 2
f 55/412/55 56/414/56 282/415/282 281/413/281 
s 4
f 56/414/56 54/416/54 283/417/283 282/415/282 
s 2
f 54/416/54 53/418/53 284/419/284 283/417/283 
s 4
f 53/418/53 52/420/52 285/421/285 284/419/284 
s 2
f 52/420/52 51/422/51 286/423/286 285/421/285 
f 51/422/51 49/424/49 287/425/287 286/423/286 
s 4
f 49/424/49 50/426/50 288/427/288 287/425/287 
s 2
f 50/426/50 48/428/48 289/429/289 288/427/288 
s 4
f 48/428/48 47/430/47 290/431/290 289/429/289 
s 2
f 47/430/47 46/432/46 291/433/291 290/431/290 
f 46/432/46 45/434/45 292/435/292 291/433/291 
s 4
f 45/434/45 44/436/44 293/437/293 292/435/292 
s 2
f 44/436/44 42/438/42 294/439/294 293/437/293 
s 4
f 42/438/42 41/440/41 295/441/295 294/439/294 
s 2
f 41/440/41 39/442/39 296/443/296 295/441/295 
s 4
f 39/442/39 40/444/40 297/445/297 296/443/296 
s 2
f 40/444/40 38/446/38 298/447/298 297/445/297 
s 4
f 38/446/38 37/448/37 299/449/299 298/447/298 
f 37/448/37 35/450/35 300/451/300 299/449/299 
s 2
f 35/450/35 34/452/34 301/453/301 300/451/300 
s 4
f 34/452/34 33/454/33 302/455/302 301/453/301 
s 2
f 33/454/33 32/456/32 303/457/303 302/455/302 
s 4
f 32/456/32 30/458/30 304/459/304 303/457/303 
s 2
f 30/458/30 29/460/29 305/461/305 304/459/304 
s 4
f 29/460/29 28/462/28 306/463/306 305/461/305 
s 2
f 28/462/28 27/464/27 307/465/307 306/463/306 
f 27/464/27 26/466/26 308/467/308 307/465/307 
f 26/466/26 20/468/20 309/469/309 308/467/308 
s 4
f 20/468/20 24/470/24 310/471/310 309/469/309 
s 2
f 24/470/24 23/472/23 311/473/311 310/471/310 
s 4
f 23/472/23 22/474/22 312/475/312 311/473/311 
s 2
f 22/474/22 21/476/21 313/477/313 312/475/312 
s 4
f 21/476/21 19/478/19 314/479/314 313/477/313 
s 2
f 19/478/19 18/480/18 315/481/194 314/479/314 
s 4
f 18/480/18 17/482/17 316/483/315 315/481/194 
s 2
f 17/482/17 16/484/16 317/485/316 316/483/315 
s 4
f 16/484/16 14/486/14 318/487/317 317/485/316 
s 2
f 14/486/14 15/488/15 319/489/318 318/487/317 
s 4
f 15/488/15 11/490/11 320/491/319 319/489/318 
s 2
f 11/490/11 10/492/10 321/493/320 320/491/319 
s 4
f 10/492/10 9/494/9 322/495/321 321/493/320 
f 9/494/9 12/496/12 323/497/322 322/495/321 
f 12/496/12 13/498/13 324/499/323 323/497/322 
f 13/498/13 25/500/25 325/501/324 324/499/323 
f 25/500/25 7/502/7 326/503/325 325/501/324 
s 2
f 7/502/7 6/504/6 327/505/326 326/503/325 
s 4
f 6/504/6 4/506/4 328/507/327 327/505/326 
s 2
f 4/506/4 5/508/5 329/509/328 328/507/327 
s 4
f 5/508/5 3/510/3 330/511/329 329/509/328 
s 2
f 3/510/3 2/512/2 331/513/330 330/511/329 
s 4
f 2/512/2 1/514/1 332/515/331 331/513/330 
s 2
f 1/514/1 166/516/166 333/517/332 332/515/331 
s 4
f 166/516/166 167/518/167 334/519/333 333/517/332 
# 240 polygons - 15 triangles

